<svg width="27" height="27" viewBox="0 0 27 27" fill="none" xmlns="http://www.w3.org/2000/svg">
<path d="M1 22.875V4.125C1 3.2962 1.32924 2.50134 1.91529 1.91529C2.50134 1.32924 3.2962 1 4.125 1H22.875C23.7038 1 24.4987 1.32924 25.0847 1.91529C25.6708 2.50134 26 3.2962 26 4.125V22.875C26 23.7038 25.6708 24.4987 25.0847 25.0847C24.4987 25.6708 23.7038 26 22.875 26H4.125C3.2962 26 2.50134 25.6708 1.91529 25.0847C1.32924 24.4987 1 23.7038 1 22.875Z" stroke="#5E5D68" stroke-width="2" stroke-linecap="round" stroke-linejoin="round"/>
<path d="M5.6875 16.625L10.375 11.9375L13.5 15.0625L18.1875 10.375L21.3125 13.5" stroke="#5E5D68" stroke-width="2" stroke-linecap="round" stroke-linejoin="round"/>
</svg>
