<svg width="165" height="164" viewBox="0 0 165 164" fill="none" xmlns="http://www.w3.org/2000/svg">
<path d="M5.5 139.75V24.25C5.5 19.1446 7.52812 14.2483 11.1382 10.6382C14.7483 7.02812 19.6446 5 24.75 5H140.25C145.355 5 150.252 7.02812 153.862 10.6382C157.472 14.2483 159.5 19.1446 159.5 24.25V139.75C159.5 144.855 157.472 149.752 153.862 153.362C150.252 156.972 145.355 159 140.25 159H24.75C19.6446 159 14.7483 156.972 11.1382 153.362C7.52812 149.752 5.5 144.855 5.5 139.75Z" stroke="#E10075" stroke-width="10" stroke-linecap="round" stroke-linejoin="round"/>
<path d="M34.375 101.25L63.25 72.375L82.5 91.625L111.375 62.75L130.625 82" stroke="#E10075" stroke-width="10" stroke-linecap="round" stroke-linejoin="round"/>
</svg>
