<svg width="25" height="23" viewBox="0 0 25 23" fill="none" xmlns="http://www.w3.org/2000/svg">
<path d="M2.51345 22.621H22.4866C23.8727 22.621 25 21.4937 25 20.1076V2.51345C25 1.12728 23.8727 0 22.4866 0H2.51345C1.12728 0 0 1.12728 0 2.51345V20.1076C0 21.4937 1.12728 22.621 2.51345 22.621ZM2.51345 20.1076V13.824H7.54034V20.1076H2.51345ZM15.0807 5.02689V11.3105H10.0538V5.02689H15.0807ZM7.54034 5.02689V11.3105H2.51345V5.02689H7.54034ZM10.0538 20.1076V13.824H15.0807V20.1076H10.0538ZM17.5941 20.1076V13.824H22.4878V20.1076H17.5941ZM22.4866 11.3105H17.5941V5.02689H22.4866V11.3105Z" fill="#96969E"/>
</svg>
